<svg width="410" height="470" viewBox="0 0 410 470" fill="none" xmlns="http://www.w3.org/2000/svg">
<g filter="url(#filter0_d)">
<path fill-rule="evenodd" clip-rule="evenodd" d="M382 134L208.5 70L30.0001 134L31.0493 349.534L206.002 460.458V225.984L382 134Z" fill="#EDBC3E"/>
</g>
<path d="M122 408V131.5L206 224.055V460L122 408Z" fill="#E6B433"/>
<g filter="url(#filter1_d)">
<path d="M39.3339 273.663L39 205L95 233.729V303L39.3339 273.663Z" fill="#F8F8F8"/>
</g>
<path d="M122 405.5V241L187 271.5V447L122 405.5Z" fill="#AE3838"/>
<g filter="url(#filter2_d)">
<path d="M380.953 350.132L206 461.36V224.182L382 134L380.953 350.132Z" fill="#D1A535"/>
</g>
<path d="M356.351 367.366L248 436V289.647L357 234L356.351 367.366Z" fill="#592323"/>
<path d="M410 164L210.5 248.5L100.5 103L301 42.5L410 164Z" fill="#8B3232"/>
<path d="M123.5 131.5L0 137.5L49.5 120.25L99 103L301 42.5L302.5 44L123.5 131.5Z" fill="#C95050"/>
<circle cx="131.5" cy="329.5" r="5.5" fill="#E6B433"/>
<defs>
<filter id="filter0_d" x="26.0001" y="70" width="360" height="398.458" filterUnits="userSpaceOnUse" color-interpolation-filters="sRGB">
<feFlood flood-opacity="0" result="BackgroundImageFix"/>
<feColorMatrix in="SourceAlpha" type="matrix" values="0 0 0 0 0 0 0 0 0 0 0 0 0 0 0 0 0 0 127 0"/>
<feOffset dy="4"/>
<feGaussianBlur stdDeviation="2"/>
<feColorMatrix type="matrix" values="0 0 0 0 0 0 0 0 0 0 0 0 0 0 0 0 0 0 0.25 0"/>
<feBlend mode="normal" in2="BackgroundImageFix" result="effect1_dropShadow"/>
<feBlend mode="normal" in="SourceGraphic" in2="effect1_dropShadow" result="shape"/>
</filter>
<filter id="filter1_d" x="39" y="205" width="64" height="106" filterUnits="userSpaceOnUse" color-interpolation-filters="sRGB">
<feFlood flood-opacity="0" result="BackgroundImageFix"/>
<feColorMatrix in="SourceAlpha" type="matrix" values="0 0 0 0 0 0 0 0 0 0 0 0 0 0 0 0 0 0 127 0"/>
<feOffset dx="4" dy="4"/>
<feGaussianBlur stdDeviation="2"/>
<feColorMatrix type="matrix" values="0 0 0 0 0 0 0 0 0 0 0 0 0 0 0 0 0 0 0.25 0"/>
<feBlend mode="normal" in2="BackgroundImageFix" result="effect1_dropShadow"/>
<feBlend mode="normal" in="SourceGraphic" in2="effect1_dropShadow" result="shape"/>
</filter>
<filter id="filter2_d" x="202" y="134" width="184" height="335.36" filterUnits="userSpaceOnUse" color-interpolation-filters="sRGB">
<feFlood flood-opacity="0" result="BackgroundImageFix"/>
<feColorMatrix in="SourceAlpha" type="matrix" values="0 0 0 0 0 0 0 0 0 0 0 0 0 0 0 0 0 0 127 0"/>
<feOffset dy="4"/>
<feGaussianBlur stdDeviation="2"/>
<feColorMatrix type="matrix" values="0 0 0 0 0 0 0 0 0 0 0 0 0 0 0 0 0 0 0.25 0"/>
<feBlend mode="normal" in2="BackgroundImageFix" result="effect1_dropShadow"/>
<feBlend mode="normal" in="SourceGraphic" in2="effect1_dropShadow" result="shape"/>
</filter>
</defs>
</svg>
